<svg xmlns="http://www.w3.org/2000/svg" viewBox="0 0 350 350">
  <path fill="#20fd70" d="M101.9,43.9C3.3,89.8-17.1,228.3,66.3,298.7c90,76,229.9,29.8,251.6-86.5C340.9,88.8,216.5-9.4,101.9,43.9ZM257.2,289.8c-67.4,57.3-172,36.4-213-41.3C-1.9,161.5,54.6,53.2,152.8,44c137.2-12.9,209.1,156.8,104.4,245.9ZM256.4,88.8c-19.5-17.4-44.3-29.5-70-34.1v14.3h-38.2v-14.3c-31.7,5.1-63.2,21.4-81.1,48.4.5,2,9.7,4.9,9.3,9.3-.1,1.6-13.1,24.1-14.9,26.4-1.2,1.5-2.2,3.3-4.4,3l-10.6-4.5c-6.3,21.2-9.2,43.5-6,65.6.7,5,4.1,20,6.3,23.9.8,1.5,1.3,3.1,3.4,2.5l10.6-4.6,16,32.5-7.9,7.8c19.8,24.3,47.3,41.9,79.4,43.9.1-3.9-1.2-8.6,2.4-11.1h35.8v11.1c21.9-3.2,46.1-14.4,63.5-28,2.6-2,19.6-17,17.6-19.7l-9.5-3.2c-1-1.4,13.8-27.7,16.1-30.8,1-1.4,1.6-2.7,3.7-2.6l10.4,4.8c11.4-29.2,10.5-62.3,1.6-92.2l-14.2,4.7-17.4-32.5c1-3.4,12.3-4.4,10.9-7.9-.4-1.1-10.7-11-12.7-12.8ZM238.4,254.3C141.2,350.5-2.5,196.7,102.2,106.3c96.3-83.2,226.9,58.4,136.2,148.1ZM218.1,170c-1.8-1-12.5-5.7-13.4-5.7h-69.1v-49.3c-42.8-.6-49.7,67-14.7,82.3,1.4.6,10.2,3.6,10.7,3.6h67.6v49.3c40.7,2.4,49.1-62.4,19-80.2ZM199.2,115v36.6h35c2.5-20-14.9-37.4-35-36.6ZM135.6,250.1v-35h-36.6c1.2,20,15.9,35.9,36.6,35ZM184.9,151.6c-1-19.2-16.4-33.8-35-36.6v34.2l2.4,2.4h32.6ZM186.5,250.1v-35h-36.6c2.3,18,18,34,36.6,35Z"/>
</svg>
