<?xml version="1.0" encoding="UTF-8"?>
<svg id="Camada_1" xmlns="http://www.w3.org/2000/svg" version="1.1" viewBox="0 0 1080 365.4">
  <!-- Generator: Adobe Illustrator 29.0.0, SVG Export Plug-In . SVG Version: 2.1.0 Build 186)  -->
  <defs>
    <style>
      .st0 {
        fill: #fff;
      }

      .st1 {
        fill: #20fd70;
      }

      .st2 {
        fill: #d5dbd7;
      }
    </style>
  </defs>
  <path class="st1" d="M101.9,43.9C3.3,89.8-17.1,228.3,66.3,298.7c90,76,229.9,29.8,251.6-86.5C340.9,88.8,216.5-9.4,101.9,43.9ZM257.2,289.8c-67.4,57.3-172,36.4-213-41.3C-1.9,161.5,54.6,53.2,152.8,44c137.2-12.9,209.1,156.8,104.4,245.9ZM256.4,88.8c-19.5-17.4-44.3-29.5-70-34.1v14.3h-38.2v-14.3c-31.7,5.1-63.2,21.4-81.1,48.4.5,2,9.7,4.9,9.3,9.3-.1,1.6-13.1,24.1-14.9,26.4-1.2,1.5-2.2,3.3-4.4,3l-10.6-4.5c-6.3,21.2-9.2,43.5-6,65.6.7,5,4.1,20,6.3,23.9.8,1.5,1.3,3.1,3.4,2.5l10.6-4.6,16,32.5-7.9,7.8c19.8,24.3,47.3,41.9,79.4,43.9.1-3.9-1.2-8.6,2.4-11.1h35.8v11.1c21.9-3.2,46.1-14.4,63.5-28,2.6-2,19.6-17,17.6-19.7l-9.5-3.2c-1-1.4,13.8-27.7,16.1-30.8,1-1.4,1.6-2.7,3.7-2.6l10.4,4.8c11.4-29.2,10.5-62.3,1.6-92.2l-14.2,4.7-17.4-32.5c1-3.4,12.3-4.4,10.9-7.9-.4-1.1-10.7-11-12.7-12.8ZM238.4,254.3C141.2,350.5-2.5,196.7,102.2,106.3c96.3-83.2,226.9,58.4,136.2,148.1ZM218.1,170c-1.8-1-12.5-5.7-13.4-5.7h-69.1v-49.3c-42.8-.6-49.7,67-14.7,82.3,1.4.6,10.2,3.6,10.7,3.6h67.6v49.3c40.7,2.4,49.1-62.4,19-80.2ZM199.2,115v36.6h35c2.5-20-14.9-37.4-35-36.6ZM135.6,250.1v-35h-36.6c1.2,20,15.9,35.9,36.6,35ZM184.9,151.6c-1-19.2-16.4-33.8-35-36.6v34.2l2.4,2.4h32.6ZM186.5,250.1v-35h-36.6c2.3,18,18,34,36.6,35Z"/>
  <path class="st0" d="M698.3,169.1h-35.8l-2.4-2.4v-35.8h-49.3v35.8l-2.4,2.4h-35l-2.4-2.4v-77.9c0-11.4,6.3-31.4,13.5-40.6,20.7-26.6,84.5-25.8,103.9,2.7,2.7,3.9,9.8,21.2,9.8,25.2v93ZM660.2,105.5v-24.6c0-.9-3.1-9-3.9-10.4-8.9-16.9-34.2-16.3-42.1,1-.7,1.5-3.3,10-3.3,11v23h49.3Z"/>
  <path class="st0" d="M1062.3,32.4c-2.3,9.1.5,21.1-4,28.6h-62.8v27h58.8l-1.6,25.4h-57.2v27h66.8c-2.3,9.1.5,21.1-4,28.6h-102.5V32.4h106.5Z"/>
  <path class="st0" d="M496.2,43.7l-12.5,28.4c-6.7-2.8-10.9-8.4-18-11.4-11.1-4.8-43.9-8.4-43.9,9,0,14.7,41.9,19.8,53.9,25.5,16.2,7.7,24.2,19.5,22.1,37.9-5.5,49.3-88.4,45.3-119,23.2l14.3-28.6,18.5,12.5c11.4,10.3,59.8,4.5,46.5-16.3-10.8-16.9-67.5-5-73.8-45.4-8.7-55.5,79.9-59.3,111.9-34.8Z"/>
  <path class="st0" d="M884.3,32.4c-2.3,9.1.5,21.1-4,28.6h-62.8v30.2h55.6v23c0,.5-2.1,2.4-1.6,4h-54v49.3c-2-.9-4.7,1.6-5.6,1.6h-34.2V32.4h106.5Z"/>
  <path class="st2" d="M661.5,220.4c-2.1,4-7.7,18.8-7.7,22.5v89.8h38.2v-36.6h50.9v36.6h38.2v-78.7c0-7.1-3.9-23-6.7-29.8-16.9-39.9-93.1-40.6-112.8-3.9ZM740.4,270.8h-48.5v-23c0-.6,3.3-10.4,4-11.9,9-20.3,39.7-16.7,44.6,6.3,1.6,7.2,3.9,23.1,0,28.7ZM886,255.7l54-58h-45.3l-48.5,55.6v-55.6h-38.2v135.1h38.2v-35.8l15.1-15.1c19.7,28,37.4,56.8,77.1,50.9l1.6-28.6c-26.8.5-37.5-32.2-54-48.5ZM998.8,278.7h57.2l1.6-27h-58.8v-25.4h62.8c2.4-2.4,5-27.6,4-28.6h-104.1l-2.4,2.4v132.7h104.9l1.6-27h-66.8v-27ZM426.5,241.4c-7.1-9.6,2.1-18.3,12.1-19.8,18.8-2.7,33.1,3.6,46.7,15.8l12.8-26.3c0-7.6-32.5-15.8-39.2-16.4-35.3-3.6-78,7.4-72,51.3,4.3,31,48.9,27.1,67.2,37.7,10.3,6,10.2,17.6-.5,22.9-12.1,6.1-28.3,4.1-40.2-1.4-6.9-3.2-11.9-9.5-18.7-12.3l-12.5,28.4c34.2,24.5,127.3,23.7,117.1-36.8-5.9-34.9-61.4-27.9-72.8-43.3ZM510.7,223.9l2.4,2.4h45.3v104.1c0,.5-2,1.2-1.6,2.4h39.7v-106.5h44.5l1.6-28.6h-131.9v26.2Z"/>
</svg>